<?xml version="1.0" encoding="UTF-8"?>
<svg id="Calque_2" data-name="Calque 2" xmlns="http://www.w3.org/2000/svg" viewBox="0 0 374.92 104.23">
  <defs>
    <style>
      .cls-1 {
        fill: #05213e;
      }

      .cls-2, .cls-3 {
        fill: #eb2b2b;
      }

      .cls-4, .cls-5, .cls-6 {
        fill: #fff;
      }

      .cls-7 {
        fill: #123984;
      }

      .cls-5 {
        stroke-width: .1px;
      }

      .cls-5, .cls-6 {
        stroke: #fff;
        stroke-miterlimit: 10;
      }

      .cls-3 {
        fill-rule: evenodd;
      }

      .cls-6 {
        stroke-width: .75px;
      }
    </style>
  </defs>
  <g id="Calque_1-2" data-name="Calque 1">
    <g>
      <g>
        <path class="cls-4" d="M146.56,90.61c.6,.4,1.4,.6,2.5,.6,2.8,0,5.31-1.5,7.01-3.61l.5-.7h-3.31l-.1,.1c-.9,1.1-2,1.6-3.1,1.6-.5,0-.8-.1-.9-.2-.1-.1-.2-.3-.2-.5,0-.4,.2-1.1,.6-1.8,1.5-2.5,3.31-3,4.21-3,.6,0,.9,.1,1,.2,.1,.1,.1,.2,.1,.4,0,.1,0,.3-.1,.5l-.1,.5h3l.1-.2c.2-.4,.4-.9,.4-1.4,0-.6-.2-1.3-.8-1.7-.6-.5-1.4-.7-2.6-.7-2.9,0-6.21,1.7-8.11,5.11-.6,1.1-1,2.1-1,2.9-.1,.8,.3,1.5,.9,1.9h0Z"/>
        <path class="cls-4" d="M157.37,85.8c-.7,1.2-1,2.1-1,2.9,0,.5,.2,1,.4,1.4,.4,.5,1,.8,1.6,1s1.1,.2,1.6,.2c.7,0,2.1-.1,3.71-.8s3.21-2,4.51-4.21c.7-1.2,1-2.1,1-2.9,0-.5-.2-1-.4-1.4-.4-.5-1-.8-1.6-1s-1.1-.2-1.6-.2c-.7,0-2.1,.1-3.71,.8-1.5,.7-3.21,1.9-4.51,4.21Zm2.9,.4c1.4-2.5,3.31-3,4.41-3,.4,0,.7,.1,.9,.2,.2,.1,.3,.3,.3,.7s-.2,.9-.6,1.7c-1.4,2.5-3.31,3-4.41,3-.4,0-.7-.1-.9-.2-.2-.1-.3-.3-.3-.7s.2-.9,.6-1.7h0Z"/>
        <path class="cls-4" d="M168.29,87.3c-.4,.7-.6,1.3-.6,1.9,0,.2,0,.5,.1,.7,.3,.6,.8,.9,1.4,1.1,.6,.2,1.2,.2,1.7,.2,2.8,0,5.31-1.1,6.81-3.71l-.4-.2,.4,.2,3.91-6.61h-3.21l-3.71,6.31c-.3,.5-.7,.9-1.1,1.1-.5,.3-1,.4-1.7,.4-.3,0-.5-.1-.6-.1q-.1-.1-.1-.3c0-.2,.1-.4,.3-.8l3.91-6.61h-3.21l-3.91,6.41h0Z"/>
        <path class="cls-4" d="M177.71,91.01h2.4l2.1-3.61h2c.4,0,.7,0,.8,.1h0c0,.1,0,.2-.1,.3-.1,.2-.2,.4-.4,.7-.6,1-.8,1.5-.9,2l-.1,.5h3.21l.3-.4,.2-.4-.3-.1c0-.1,.1-.2,.1-.3,.1-.2,.3-.6,.6-1,.5-.8,.7-1.3,.7-1.8,0-.2-.1-.4-.2-.6,1-.4,1.9-1.2,2.4-2.1,.2-.4,.4-.9,.4-1.4,0-.4-.2-.9-.6-1.3-.4-.3-1.1-.5-2-.5h-5.51l-5.91,10.12,.8-.2h0Zm9.42-7.61c.3,0,.5,.1,.6,.1v.1c0,.1-.1,.3-.1,.4-.2,.4-.5,.7-.8,.8-.3,.2-.7,.2-1.3,.2h-1.8l1-1.7,2.4,.1h0Z"/>
        <path class="cls-4" d="M188.32,91.01h2.4l2.1-3.61h2c.4,0,.7,0,.8,.1h0c0,.1,0,.2-.1,.3-.1,.2-.2,.4-.4,.7-.6,1-.8,1.5-.9,2l-.1,.5h3.21l.3-.4,.2-.4-.3-.1c0-.1,.1-.2,.1-.3,.1-.2,.3-.6,.6-1,.5-.8,.7-1.3,.7-1.8,0-.2-.1-.4-.2-.6,1-.4,1.9-1.2,2.4-2.1,.2-.4,.4-.9,.4-1.4,0-.4-.2-.9-.6-1.3-.4-.3-1.1-.5-2-.5h-5.51l-5.91,10.12h.8v-.2Zm9.31-7.61c.3,0,.5,.1,.6,.1v.1c0,.1-.1,.3-.1,.4-.2,.4-.5,.7-.8,.8-.3,.2-.7,.2-1.3,.2h-1.8l1-1.7,2.4,.1h0Z"/>
        <path class="cls-4" d="M201.14,91.01l.1-.2,5.71-9.92h-3.21l-5.91,10.12h3.31Z"/>
        <path class="cls-4" d="M210.96,91.01l1.4-2.5h-5.61l.9-1.6h4.91l1.4-2.5h-4.91l.6-1.1h5.41l.1-.2,1.3-2.3h-8.41l-5.91,10.12h8.81v.1h0Z"/>
        <path class="cls-4" d="M212.46,91.01h2.4l2.1-3.61h2c.4,0,.7,0,.8,.1h0c0,.1,0,.2-.1,.3-.1,.2-.2,.4-.4,.7-.6,1-.8,1.5-.9,2l-.1,.5h3.21l.3-.4,.2-.4-.3-.1c0-.1,.1-.2,.1-.3,.1-.2,.3-.6,.6-1,.5-.8,.7-1.3,.7-1.8,0-.2-.1-.4-.2-.6,1-.4,1.9-1.2,2.4-2.1,.2-.4,.4-.9,.4-1.4,0-.4-.2-.9-.6-1.3-.4-.3-1.1-.5-2-.5h-5.51l-5.91,10.12h.8v-.2Zm9.31-7.61c.3,0,.5,.1,.6,.1v.1c0,.1-.1,.3-.1,.4-.2,.4-.5,.7-.8,.8-.3,.2-.7,.2-1.3,.2h-1.8l1-1.7,2.4,.1h0Z"/>
        <path class="cls-4" d="M229.69,90.81l5.71-9.92h-3.21l-5.91,10.12h3.21l.2-.2Z"/>
        <path class="cls-4" d="M233.6,91.01l3.31-5.71,.5,5.71h2.9l5.91-10.12h-3.1l-.1,.2-3.1,5.31-.4-5.51h-3l-5.91,10.12h3Z"/>
        <path class="cls-4" d="M248.12,83.4l-4.41,7.61h3.1l.1-.2,4.31-7.41h3.1l1.4-2.5h-9.31l-1.4,2.5h3.11Z"/>
        <path class="cls-4" d="M259.04,91.01l1.4-2.5h-5.61l.9-1.6h4.91l1.4-2.5h-5.01l.7-1.1h5.41l.1-.2,1.3-2.3h-8.41l-5.91,10.12h8.81v.1h0Z"/>
        <path class="cls-4" d="M260.54,91.01h2.4l2.1-3.61h2c.4,0,.7,0,.8,.1h0c0,.1,0,.2-.1,.3-.1,.2-.2,.4-.4,.7-.6,1-.8,1.5-.9,2l-.1,.5h3.21l.3-.4,.2-.4-.3-.1c0-.1,.1-.2,.1-.3,.1-.2,.3-.6,.6-1,.5-.8,.7-1.3,.7-1.8,0-.2-.1-.4-.2-.6,1-.4,1.9-1.2,2.4-2.1,.2-.4,.4-.9,.4-1.4,0-.4-.2-.9-.6-1.3-.4-.3-1.1-.5-2-.5h-5.51l-5.91,10.12,.8-.2h0Zm9.31-7.61c.3,0,.5,.1,.6,.1v.1c0,.1-.1,.3-.1,.4-.2,.4-.5,.7-.8,.8-.3,.2-.7,.2-1.3,.2h-1.8l1-1.7,2.4,.1h0Z"/>
        <path class="cls-4" d="M273.36,91.01l3.31-5.71,.5,5.71h2.9l5.91-10.12h-3.1l-.1,.2-3.1,5.31-.4-5.51h-3l-5.91,10.12h3Z"/>
        <path class="cls-4" d="M283.48,91.01l1.8-1.9h3l-.5,1.9h3.1l2.1-10.12h-3.1l-9.72,10.12h3.31Zm4.01-4.31l1.7-1.8-.4,1.8h-1.3Z"/>
        <path class="cls-4" d="M291.99,91.01h3.1l.1-.2,4.31-7.41h3.21l1.4-2.5h-9.42l-1.4,2.5h3.21l-4.51,7.61Z"/>
        <path class="cls-4" d="M301.71,91.01l.1-.2,5.71-9.92h-3.21l-5.91,10.12h3.31Z"/>
        <path class="cls-4" d="M316.23,86.2c.7-1.2,1-2.1,1-2.9,0-.5-.2-1-.4-1.4-.4-.5-1-.8-1.6-1s-1.1-.2-1.6-.2c-.7,0-2.1,.1-3.71,.8-1.6,.7-3.21,2-4.51,4.21-.7,1.2-1,2.1-1,2.9,0,.5,.2,1,.4,1.4,.4,.5,1,.8,1.6,1s1.1,.2,1.6,.2c.7,0,2.1-.1,3.71-.8,1.5-.7,3.21-2,4.51-4.21Zm-3.51-3c.4,0,.7,.1,.9,.2,.2,.1,.3,.3,.3,.7s-.2,.9-.6,1.7c-1.4,2.5-3.31,3-4.41,3-.4,0-.7-.1-.9-.2-.2-.1-.3-.3-.3-.7s.2-.9,.6-1.7c1.4-2.5,3.31-3,4.41-3Z"/>
        <path class="cls-4" d="M326.65,80.89l-.1,.2-3.1,5.31-.4-5.51h-3l-5.91,10.12h3.1l3.31-5.71,.5,5.71h2.9l5.91-10.12h-3.21Z"/>
        <path class="cls-4" d="M333.66,80.89l-9.72,10.12h3.31l1.8-1.9h3l-.5,1.9h3.1l2.1-10.12h-3.1Zm-2.3,5.81l1.7-1.8-.4,1.8h-1.3Z"/>
        <path class="cls-4" d="M339.57,88.51l4.41-7.61h-3.1l-5.91,10.12h8.11l1.4-2.5h-4.91Z"/>
        <path class="cls-4" d="M152.87,93.92l-.1,.1c-2.2,2.5-3.41,4.01-4.21,4.91,.3-.9,.8-2.3,1.5-4.51l.2-.5h-3.21l-.1,.1c-2,2.4-3.1,3.91-3.91,4.81,.3-.9,.7-2.3,1.4-4.41l.2-.5h-3.31l-.1,.3-2.5,9.72h2.8l.1-.1c2.3-2.8,3.51-4.21,4.31-5.21-.4,1-.8,2.4-1.7,4.81l-.2,.5h2.9l9.21-10.12-3.31,.1h0Z"/>
        <path class="cls-4" d="M163.98,99.12c.7-1.2,1-2.1,1-2.9,0-.5-.2-1-.4-1.4-.4-.5-1-.8-1.6-1s-1.1-.2-1.6-.2c-.7,0-2.1,.1-3.71,.8-1.5,.7-3.21,2-4.51,4.21-.7,1.2-1,2.1-1,2.9,0,.5,.2,1,.4,1.4,.4,.5,1,.8,1.6,1s1.1,.2,1.6,.2c.7,0,2.1-.1,3.71-.8,1.5-.7,3.21-2,4.51-4.21Zm-7.91,0c1.4-2.5,3.31-3,4.41-3,.4,0,.7,.1,.9,.2,.2,.1,.3,.3,.3,.7s-.2,.9-.6,1.7c-1.4,2.5-3.31,3-4.41,3-.4,0-.7-.1-.9-.2-.2-.1-.3-.3-.3-.7,0-.3,.2-.9,.6-1.7Z"/>
        <path class="cls-4" d="M172,102.63c.1-.2,.3-.6,.6-1,.5-.8,.7-1.3,.7-1.8,0-.2-.1-.4-.2-.6,1-.4,1.9-1.2,2.4-2.1,.2-.4,.4-.9,.4-1.4,0-.4-.2-.9-.6-1.3-.4-.3-1.1-.5-2-.5h-5.51l-5.91,10.12h3.1l2.1-3.61h2c.4,0,.7,0,.8,.1h0c0,.1,0,.2-.1,.3-.1,.2-.2,.4-.4,.7-.6,1-.8,1.5-.9,2l-.1,.5h3.21l.3-.4,.2-.4-.3-.1c.2-.2,.2-.3,.2-.5h0Zm.1-6.31c.3,0,.5,.1,.6,.1v.1c0,.1-.1,.3-.1,.4-.2,.4-.5,.7-.8,.8-.3,.2-.7,.2-1.3,.2h-1.8l1-1.7,2.4,.1h0Z"/>
        <path class="cls-4" d="M177.01,101.43l4.41-7.61h-3.1l-5.91,10.12h8.11l1.4-2.5h-4.91Z"/>
        <path class="cls-4" d="M194.43,94.52c-.5-.4-1.3-.6-2.3-.6h-5.01l-5.91,10.12h5.41c1.9,0,3.51-.8,4.81-1.8s2.2-2.2,2.8-3.31c.5-.8,.9-1.8,.9-2.8,0-.6-.2-1.2-.7-1.6h0Zm-5.01,6.11c-.7,.5-1.4,.9-2.2,.9h-1.5l3.1-5.21h1.9c.3,0,.6,0,.8,.1,.1,0,.1,.1,.2,.1,0,.1,.1,.1,.1,.3,0,.3-.2,.9-.7,1.8-.4,.7-1,1.5-1.7,2h0Z"/>
        <path class="cls-4" d="M208.46,93.92l-.1,.1c-2.2,2.5-3.41,4.01-4.21,4.91,.3-.9,.8-2.3,1.5-4.51l.2-.5h-3.21l-.1,.1c-2,2.4-3.1,3.91-3.91,4.81,.3-.9,.7-2.3,1.4-4.41l.2-.5h-3.31l-.1,.3-2.5,9.72h2.8l.1-.1c2.3-2.8,3.51-4.21,4.31-5.21-.4,1-.8,2.4-1.7,4.81l-.2,.5h2.9l9.21-10.12-3.31,.1h0Z"/>
        <path class="cls-4" d="M211.86,93.92l-5.91,10.12h3.21l.1-.2,5.71-9.92h-3.1Z"/>
        <path class="cls-4" d="M223.38,98.92c.5-.8,.9-1.8,.9-2.8,0-.6-.2-1.2-.7-1.6-.5-.4-1.3-.6-2.3-.6h-5.01l-5.91,10.12h5.41c1.9,0,3.51-.8,4.81-1.8,1.2-1,2.2-2.3,2.8-3.31h0Zm-4.81,1.7c-.7,.5-1.4,.9-2.2,.9h-1.5l3.1-5.21h1.9c.3,0,.6,0,.8,.1,.1,0,.1,.1,.2,.1,0,.1,.1,.1,.1,.3,0,.3-.2,.9-.7,1.8-.4,.7-1,1.5-1.7,2h0Z"/>
        <path class="cls-4" d="M221.08,103.93h8.71l1.4-2.5h-5.61l.9-1.6h4.91l1.4-2.5h-5.01l.6-1.1h5.41l.1-.2,1.3-2.2h-8.41l-5.71,10.12Z"/>
        <path class="cls-4" d="M244.01,99.93l-.1,.1c-.9,1.1-2,1.6-3.1,1.6-.5,0-.8-.1-.9-.2-.1-.1-.2-.3-.2-.5,0-.4,.2-1.1,.6-1.8,1.5-2.5,3.31-3,4.21-3,.6,0,.9,.1,1,.2,.1,.1,.1,.2,.1,.4,0,.1,0,.3-.1,.5l-.1,.5h3l.1-.2c.2-.4,.4-.9,.4-1.4,0-.6-.2-1.3-.8-1.7-.6-.5-1.4-.7-2.6-.7-2.9,0-6.21,1.7-8.11,5.11-.6,1.1-1,2.1-1,2.9s.4,1.5,1,1.9,1.4,.6,2.5,.6c2.8,0,5.31-1.5,7.01-3.61l.5-.7h-3.41Z"/>
        <path class="cls-4" d="M259.94,96.22c0-.5-.2-1-.4-1.4-.4-.5-1-.8-1.6-1s-1.1-.2-1.6-.2c-.7,0-2.1,.1-3.71,.8-1.6,.7-3.21,2-4.51,4.21-.7,1.2-1,2.1-1,2.9,0,.5,.2,1,.4,1.4,.4,.5,1,.8,1.6,1s1.1,.2,1.6,.2c.7,0,2.1-.1,3.71-.8,1.6-.7,3.21-2,4.51-4.21,.7-1.2,1-2.1,1-2.9Zm-8.21,5.51c-.4,0-.7-.1-.9-.2-.2-.1-.3-.3-.3-.7s.2-.9,.6-1.7c1.4-2.5,3.31-3,4.41-3,.4,0,.7,.1,.9,.2,.2,.1,.3,.3,.3,.7s-.2,.9-.6,1.7c-1.5,2.4-3.41,3-4.41,3Z"/>
        <path class="cls-4" d="M268.55,100.53l3.91-6.61h-3.21l-3.71,6.31c-.3,.5-.7,.9-1.1,1.1-.5,.3-1,.4-1.7,.4-.3,0-.5-.1-.6-.1q-.1-.1-.1-.3c0-.2,.1-.4,.3-.8l3.91-6.61h-3.21l-3.71,6.31c-.4,.7-.6,1.3-.6,1.9,0,.2,0,.5,.1,.7,.3,.6,.8,.9,1.4,1.1,.6,.2,1.2,.2,1.7,.2,2.6,.1,5.11-1,6.61-3.61h0Z"/>
        <path class="cls-4" d="M277.87,102.63c.1-.2,.3-.6,.6-1,.5-.8,.7-1.3,.7-1.8,0-.2-.1-.4-.2-.6,1-.4,1.9-1.2,2.4-2.1,.2-.4,.4-.9,.4-1.4,0-.4-.2-.9-.6-1.3-.4-.3-1.1-.5-2-.5h-5.51l-5.91,10.12h3.1l2.1-3.61h2c.4,0,.7,0,.8,.1h0c0,.1,0,.2-.1,.3-.1,.2-.2,.4-.4,.7-.6,1-.8,1.5-.9,2l-.1,.5h3.21l.2-.4,.2-.4-.3-.1c.2-.2,.2-.3,.3-.5h0Zm0-6.31c.3,0,.5,.1,.6,.1v.1c0,.1-.1,.3-.1,.4-.2,.4-.5,.7-.8,.8-.3,.2-.7,.2-1.3,.2h-1.8l1-1.7,2.4,.1h0Z"/>
        <path class="cls-4" d="M284.08,93.92l-5.91,10.12h3.21l.1-.2,5.71-9.92h-3.1Z"/>
        <path class="cls-4" d="M286.98,101.53l.9-1.6h5.01l1.4-2.5h-4.91l.6-1.1h5.41l.1-.2,1.3-2.2h-8.41l-5.91,10.12h8.71l1.4-2.5h-5.61Z"/>
        <path class="cls-4" d="M305.31,94.42c-.4-.3-1.1-.5-2-.5h-5.51l-5.91,10.12h3.1l2.1-3.61h2c.4,0,.7,0,.8,.1h0c0,.1,0,.2-.1,.3-.1,.2-.2,.4-.4,.7-.6,1-.8,1.5-.9,2l-.1,.5h3.21l.3-.4,.2-.4-.3-.1c0-.1,.1-.2,.1-.3,.1-.2,.3-.6,.6-1,.5-.8,.7-1.3,.7-1.8,0-.2-.1-.4-.2-.6,1-.4,1.9-1.2,2.4-2.1,.2-.4,.4-.9,.4-1.4,.2-.7,0-1.2-.5-1.5h0Zm-2.8,2.5c-.2,.4-.5,.7-.8,.8-.3,.2-.7,.2-1.3,.2h-1.8l1-1.7h2.5c.3,0,.5,.1,.6,.1v.1c0,.1-.1,.3-.2,.5h0Z"/>
        <path class="cls-4" d="M351.29,80.69h-.7v-2.9h-1v-.6h2.8v.6h-1l-.1,2.9h0Z"/>
        <path class="cls-4" d="M356.39,80.69h-.7v-3h0l-.7,3h-.7l-.6-3h0v3h-.7v-3.51h1.1l.6,2.8h0l.6-2.8h1.1v3.51h0Z"/>
        <path class="cls-4" d="M353.39,86.5h-.7v-3h0l-.7,3h-.7l-.7-3h0v3h-.7v-3.51h1.1l.6,2.8h0l.6-2.8h1.1v3.51h.1Z"/>
        <path class="cls-4" d="M356.59,84.2c-.1-.2-.2-.6-.8-.6-.4,0-.9,.2-.9,1.2,0,.6,.3,1.2,.9,1.2,.4,0,.7-.2,.8-.7h.8c-.1,.8-.7,1.3-1.6,1.3-1,0-1.6-.6-1.6-1.9,0-1.2,.7-1.9,1.6-1.9,1.1,0,1.5,.7,1.5,1.3l-.7,.1h0Z"/>
        <path class="cls-2" d="M148.66,70.18l.4-1.7h33.35l2.4-4.61h-15.42c-.4,.6-.7,1-1,1.3-.4,.3-.9,.4-1.6,.4-.4,0-.6-.1-.7-.1h0v-.2c0-.2,.1-.5,.2-.9,.1-.1,.1-.3,.2-.5h-15.22l.8-1.7h15.22l2.4-4.71h-15.12l.1-.1h-.1l.9-1.5h15.12l10.32-19.73,.9-1.7c.4-.8,.9-1.4,1.3-1.7,.5-.3,1-.5,1.5-.5,.3,0,.5,.1,.7,.2,.1,.1,.2,.2,.2,.3s0,.3-.2,.6c-.2,.4-.4,.9-.8,1.6l-3.61,6.91h15.42l4.01-7.61c1.8-3.41,2.6-5.41,2.6-7.01,0-.7-.2-1.3-.5-1.9h0c-.3-.5-.7-1-1.3-1.3-.8-.5-1.9-.8-3.51-1s-3.71-.2-6.61-.2h-3.31c-2.1,0-2.8,.1-3.41,.1h0c-3.1,.1-4.71,.2-6.11,.6-3.51,.8-6.21,2.5-8.21,5.11-.5,.7-.8,1.2-1.4,2.2-.6,1.1-1.5,2.7-3.1,5.81l-12.62,24.14c-2.1,3.91-2.9,5.61-3.51,6.91h0c-.6,1.6-1,2.9-1,3.91,0,.6,.1,1.1,.3,1.6h0c.6,1,1.6,1.8,3.1,2.2,1.5,.4,3.51,.6,6.51,.6s5.41-.3,7.61-.9c1.9-.6,3.61-1.5,5.31-2.7l.5,3.51h6.81l3-5.71c-19.53,0-32.65,0-32.85,0h0Z"/>
        <path class="cls-2" d="M170.29,62.16h15.32l2.5-4.71h-15.42l-2.4,4.71h0Z"/>
        <path class="cls-2" d="M175.6,48.24l-4.01,7.71h17.43l4.11-7.91h-17.43l-.1,.2Z"/>
        <path class="cls-2" d="M190.73,62.26h15.42l2.5-4.71h-15.42l-2.5,4.71h0Z"/>
        <path class="cls-2" d="M189.83,63.87l-2.4,4.61h23.94l1.3-2.4h-8.61l1.2-2.2c-5.41,0-10.52,0-15.42,0h0Z"/>
        <path class="cls-2" d="M209.46,55.95l17.23-32.85h-15.42l-17.13,32.85h15.32Z"/>
        <path class="cls-2" d="M186.62,70.18l-3,5.71h23.94l3-5.71h-23.94Z"/>
        <path class="cls-3" d="M232.59,62.06l2.4-4.51h-15.32l-1,2-1.4,2.8h15.32v-.3h0Z"/>
        <path class="cls-3" d="M234.5,63.87l-.2,.3c-.4,.8-.9,1.3-1.3,1.7-.4,.3-.9,.5-1.4,.5-.4,0-.6-.1-.7-.1l-.1-.1v-.2c0-.3,.2-.9,.6-1.6l.2-.4h-15.32l-1,1.9c-.5,1-.9,1.9-1.3,2.8h33.25c.1-.2,.3-.5,.4-.7,.5-.9,1.2-2.1,2.1-3.91-4.91-.2-10.12-.2-15.22-.2h0Z"/>
        <path class="cls-3" d="M235.7,61.56l-.4,.7h15.42c.4-.7,.8-1.4,1.2-2.3l1.3-2.4h-15.42l-2.1,4.01Z"/>
        <path class="cls-3" d="M235.8,55.95l10.12-19.33c.4-.8,.8-1.5,1.1-2,.1-.3,.3-.5,.4-.7,.1-.2,.2-.3,.2-.3h0c.6-.8,1.5-1.2,2.3-1.2,.4,0,.6,.1,.6,.1l.1,.1v.1c0,.2-.1,.6-.4,1.2l-1.2,2.2-10.32,19.83h15.42l8.71-16.73c1.6-3.1,2.6-5.01,3.21-6.31,.6-1.3,1-2,1.3-2.9,.4-.9,.6-1.8,.6-2.6,0-.9-.2-1.7-.7-2.4h0c-.4-.5-.8-.9-1.4-1.2-.9-.5-2-.7-3.81-.9-1.8-.1-4.21-.2-7.61-.2-4.01,0-7.11,.1-8.91,.2-3.51,.3-6.21,1.4-8.51,3.51-.8,.7-1.5,1.4-2.2,2.5s-1.6,2.6-2.7,4.81l-2.5,4.81-9.01,17.23c5.21,.1,10.32,.1,15.22,.2h0Z"/>
        <path class="cls-3" d="M213.66,70.18c-.1,.5-.2,1-.2,1.4,0,.8,.2,1.5,.6,2.1,.4,.6,1.1,1,1.9,1.4,.8,.4,1.8,.6,3.41,.7,1.6,.1,3.81,.2,7.21,.2,6.21,0,8.91-.1,11.02-.5,3.41-.6,6.21-2.2,8.41-4.81,.1-.2,.3-.3,.4-.5-11.22-.1-22.34,0-32.75,0h0Z"/>
        <path class="cls-2" d="M334.86,63.87h-13.72l-3.41,4.61h14.22l2.9-4.61h0Z"/>
        <path class="cls-2" d="M325.95,57.46l-3.61,4.81h13.62l3.1-4.71c-3.81-.1-8.21-.1-13.12-.1h0Z"/>
        <path class="cls-2" d="M316.43,70.08l-4.31,5.71h14.82l3.81-5.71h-14.32Z"/>
        <path class="cls-2" d="M373.82,23h-13.12l-10.12,15.02,5.51-15.02h-15.12l-7.51,24.54-6.31,8.31h26.84l-.6,1.7h-13.92l-1.8,4.71h14.32l-.6,1.7h-14.32l-1.7,4.51h14.72l-.5,1.7h-14.72l-2.1,5.81h15.22l8.61-27.84,18.33-24.94h-1.1v-.2h0Z"/>
        <path class="cls-2" d="M297.2,57.46l-2.5,4.81h15.42l2.5-4.81h-15.42Z"/>
        <path class="cls-2" d="M293.89,63.87l-2.4,4.61h23.24l1.2-2.3h-7.91l1.2-2.3h-15.32Z"/>
        <path class="cls-2" d="M313.42,55.85l2.3-4.31h7.91l5.01-9.52h-7.91l5.01-9.72h7.91l4.91-9.31h-23.24l-17.23,32.85c5.51,.1,10.62,.1,15.32,0h0Z"/>
        <path class="cls-2" d="M290.69,70.08l-3,5.71h23.24l3-5.71h-23.24Z"/>
        <path class="cls-2" d="M274.56,61.66l-.3,.6h15.42l2.1-3.91c.1-.3,.3-.5,.4-.8h-15.42l-2.2,4.11Z"/>
        <path class="cls-2" d="M288.79,63.87h-15.42v.1c-.5,.9-.9,1.4-1.4,1.7s-1.3,.4-2.4,.4h-.3l1.2-2.2h-15.42l-2.4,4.61h33.55c.8-1.2,1.6-2.7,2.6-4.61h0Z"/>
        <path class="cls-2" d="M273.76,57.46h-15.42l-2.5,4.71h15.42l2.5-4.71h0Z"/>
        <path class="cls-2" d="M274.66,55.95l1.6-3.1h1.1c.6,0,1,.1,1.2,.1,.1,0,.1,.1,.1,.1v.2c0,.3-.2,.8-.6,1.7l-.6,1.1h15.32c1-2.1,1.5-3.71,1.5-5.01,0-1-.3-1.8-1-2.5-.3-.3-.8-.6-1.3-.9,1.8-.6,3.41-1.4,4.81-2.5,1.8-1.4,3.21-3.21,4.51-5.61l3.51-6.71c1.1-2.1,1.7-3.71,1.7-5.01,0-1.1-.4-2-1.2-2.7h0c-.4-.4-.9-.7-1.5-.9-1.9-.7-4.91-.9-11.52-.9h-16.03l-.1,.3-17.03,32.65c5.41-.3,10.52-.3,15.52-.3h0Zm12.22-23.54c.2,0,.3,.1,.6,.1,.8,0,1.4,0,1.8,.1,.1,0,.2,.1,.2,.1v.1c0,.1-.1,.5-.3,1s-.6,1.2-1,2l-1.8,3.51c-.4,.7-.7,1.2-1,1.6-.4,.6-.8,.9-1.3,1.1s-1.2,.2-2.2,.2l5.01-9.82h0Z"/>
        <path class="cls-2" d="M251.83,70.08l-3,5.71h18.83c2.2,0,3.1-.1,4.31-.1h0c3.81-.2,6.21-.7,8.41-1.8,1.8-.9,3.1-1.9,4.41-3.41,.1-.1,.2-.3,.3-.4h-33.25Z"/>
      </g>
      <path class="cls-2" d="M79.7,13.13c-1.06-1.96-2.58-3.7-4.55-5.23-4.54-3.51-10.97-5.27-19.29-5.27-3.38,0-6.77,.28-10.18,.85-3.41,.56-6.68,1.36-9.81,2.4-3.13,1.04-6.06,2.27-8.78,3.7-2.72,1.44-5.03,3.02-6.94,4.75l10.74,18.33c2.67-3.03,5.43-5.31,8.29-6.83,2.85-1.51,5.62-2.27,8.31-2.27,3.98,0,5.89,1.73,5.7,5.2-.16,3.12-1.68,5.63-4.55,7.54-2.88,1.91-6.39,2.86-10.55,2.86h-4.42l-4.54,17.16h3.9c4.77,0,8.2,.59,10.31,1.75,2.1,1.18,3.09,3.02,2.96,5.53-.17,3.13-1.15,5.58-2.96,7.34h20.58c-3.07-6.07-4.81-12.92-4.81-20.17,0-1.36,.06-2.71,.18-4.04-.05-.01-.1-.02-.15-.03,.05-.01,.11-.02,.16-.03,1.28-14.06,9.11-26.27,20.4-33.54Zm-14.7,59.81h-25.03c-2.02,.71-4.64,1.06-7.87,1.06-2.91,0-5.46-.36-7.66-1.06H12.72l-3.83,4h58.7c-.93-1.28-1.8-2.62-2.59-4ZM1.23,84.94l-1.23,1.28c3.11,3.55,6.89,6.18,11.36,7.87,4.46,1.68,9.85,2.53,16.18,2.53s11.97-.74,17.21-2.21c5.23-1.47,9.76-3.57,13.59-6.3,1.38-.98,2.65-2.04,3.82-3.17H1.23Zm5.75-6l-3.84,4h60.92c1.1-1.26,2.08-2.59,2.94-4H6.98Zm10.21-10.66l-2.55,2.66h5.69c-1.11-.74-2.16-1.63-3.14-2.66Z"/>
      <g>
        <path class="cls-1" d="M145.74,40.1s20.41,22.69-4.57,47.55l1.03-6.93-6.95,5.56s15.08-19.74,12.51-38.13c0,0-.51-3.98-2.02-8.05Z"/>
        <path class="cls-4" d="M145.71,40.06c.17,.07,.23,.21,.34,.32,1.35,1.58,2.55,3.29,3.58,5.1,5.77,9.67,5.92,22.31,.05,31.98-2.22,3.88-5.06,7.37-8.25,10.46-.24,.26-.72,.03-.65-.33,0,0,1.15-6.91,1.15-6.91l.42,.24c-2.35,1.81-4.69,3.63-7.01,5.48-.14,.11-.35-.08-.23-.22,4.83-6.6,8.36-14.17,10.68-21.99,2.49-7.87,2.47-16.28-.08-24.13h0Zm.05,.09c6.91,15.82-1.05,33.21-10.39,46.23,0,0-.23-.22-.23-.22,2.31-1.86,4.61-3.74,6.89-5.63,.18-.16,.46,.02,.42,.24,0,0-.91,6.94-.91,6.94,0,0-.65-.33-.65-.33,13.65-13.54,16.58-31.39,4.87-47.23h0Z"/>
      </g>
      <g>
        <g>
          <path class="cls-2" d="M98.3,91.13c-1.93-.26-3.81-.66-5.65-1.18,1.86,.55,3.75,.97,5.66,1.22,0-.01,0-.03-.01-.04Zm0,0c-1.93-.26-3.81-.66-5.65-1.18,1.86,.55,3.75,.97,5.66,1.22,0-.01,0-.03-.01-.04Zm0,0c-1.93-.26-3.81-.66-5.65-1.18,1.86,.55,3.75,.97,5.66,1.22,0-.01,0-.03-.01-.04Zm0,0c-1.93-.26-3.81-.66-5.65-1.18,1.86,.55,3.75,.97,5.66,1.22,0-.01,0-.03-.01-.04Zm0,0c-1.93-.26-3.81-.66-5.65-1.18,1.86,.55,3.75,.97,5.66,1.22,0-.01,0-.03-.01-.04Zm0,0c-1.93-.26-3.81-.66-5.65-1.18,1.86,.55,3.75,.97,5.66,1.22,0-.01,0-.03-.01-.04Zm0,0c-1.93-.26-3.81-.66-5.65-1.18,1.86,.55,3.75,.97,5.66,1.22,0-.01,0-.03-.01-.04Zm0,0c-1.93-.26-3.81-.66-5.65-1.18,1.86,.55,3.75,.97,5.66,1.22,0-.01,0-.03-.01-.04Zm0,0c-1.93-.26-3.81-.66-5.65-1.18,1.86,.55,3.75,.97,5.66,1.22,0-.01,0-.03-.01-.04Zm0,0c-1.93-.26-3.81-.66-5.65-1.18,1.86,.55,3.75,.97,5.66,1.22,0-.01,0-.03-.01-.04Zm0,0c-1.93-.26-3.81-.66-5.65-1.18,1.86,.55,3.75,.97,5.66,1.22,0-.01,0-.03-.01-.04Z"/>
          <path class="cls-2" d="M148.58,50.77c0,24.67-20.07,44.74-44.73,44.74-14.9,0-28.13-7.33-36.26-18.57-.93-1.28-1.8-2.62-2.59-4-.37-.66-.73-1.32-1.08-2-3.07-6.07-4.81-12.92-4.81-20.17,0-1.36,.06-2.71,.18-4.04,1.22,.25,2.35,.62,3.39,1.11-.72,8.15,1.02,16.1,4.87,23.1,.37,.68,.76,1.34,1.17,2,.23,.36,.46,.72,.7,1.08,2.21,3.31,4.92,6.35,8.09,9.05,9.8,7.8,23.1,11.7,35.8,8,2.7-.7,5.2-1.7,7.8-2.8,8.6-4,16.4-12.1,20.1-20.9,.1-.6,.4-1.2,.6-1.7,4.9-11.5,3.4-26.1-3.2-36.5-4.4-7.3-11.5-13.6-19.1-16.6-11-5-25.5-4.1-35.7,1.9-.99,.53-1.94,1.11-2.87,1.74-8.28,5.54-14.12,14.38-16.73,23.46-.58,1.99-1,3.97-1.28,5.95-1.2,.46-2.41,.81-3.63,1.05,1.28-14.06,9.11-26.27,20.4-33.54,6.97-4.48,15.26-7.09,24.15-7.09,24.66,0,44.73,20.07,44.73,44.73Z"/>
        </g>
        <path class="cls-4" d="M138.61,29.17c-4.4-7.3-11.5-13.6-19.1-16.6-11-5-25.5-4.1-35.7,1.9-.99,.53-1.94,1.11-2.87,1.74-8.28,5.54-14.12,14.38-16.73,23.46-.58,1.99-1,3.97-1.28,5.95-.11,.74-.19,1.48-.25,2.22-.72,8.15,1.02,16.1,4.87,23.1,.37,.68,.76,1.34,1.17,2,.23,.36,.46,.72,.7,1.08,2.21,3.31,4.92,6.35,8.09,9.05,9.8,7.8,23.1,11.7,35.8,8,2.7-.7,5.2-1.7,7.8-2.8,8.6-4,16.4-12.1,20.1-20.9,.1-.6,.4-1.2,.6-1.7,4.9-11.5,3.4-26.1-3.2-36.5Zm-34.76,62.34c-1.88,0-3.73-.13-5.55-.38,.01,.01,.01,.03,.01,.04-1.91-.25-3.8-.67-5.66-1.22,0,0-.02,0-.03-.01-.61-.17-1.21-.37-1.82-.57-.29-.09-.58-.19-.86-.3-.82-.28-1.62-.58-2.43-.9-.03-.04-.06-.09-.08-.13-.53-.22-1.06-.47-1.58-.73-1.28-.41-2.56-1.44-3.84-2.04-.5-.5-1.3-.8-1.77-1.32-.01-.01-.01-.02-.02-.02-4.12-2.94-7.68-6.63-10.46-10.88-.02-.04-.05-.07-.07-.11-.43-.66-.84-1.32-1.22-2-3.41-5.95-5.36-12.84-5.36-20.17,0-.9,.03-1.8,.09-2.68,.06-.9,.14-1.79,.26-2.67,1.56-11.82,8.21-22.06,17.67-28.44,6.49-4.38,14.31-6.94,22.72-6.94,22.45,0,40.73,18.27,40.73,40.73s-18.28,40.74-40.73,40.74Z"/>
        <path class="cls-4" d="M103.85,10.04c-8.41,0-16.23,2.56-22.72,6.94-9.46,6.38-16.11,16.62-17.67,28.44-.12,.88-.2,1.77-.26,2.67-.06,.88-.09,1.78-.09,2.68,0,7.33,1.95,14.22,5.36,20.17,.38,.68,.79,1.34,1.22,2,.02,.04,.05,.07,.07,.11,2.78,4.25,6.34,7.94,10.46,10.88-.27-.31-.42-.7-.31-1.26-.4-1.6-2.4-2.6-2.5-4.3-.2-.4-.3-.8-.7-1.1-1.4,.2-1.8-1.3-2.7-2-.9-.6-.6-1.9-1.7-2.2-.7,0-1.6,.3-1.9-.5-.08-.59-.66-1.03-.67-1.63,0-.12,.02-.24,.07-.37,.18,.12,.36,.23,.55,.33,3.15,1.93,6.55,3.34,9.95,4.57,1,2.2,1.9,4.5,3,6.7,1.1,1.8,2,3.6,3.2,5.3-.22-.03-.44-.08-.66-.16,.52,.26,1.05,.51,1.58,.73-2.58-3.86-5.03-7.92-6.22-12.27,3.1,1.3,6.7,1.5,10,2.4,1.2,0,2.5,.3,3.7,.4,.7,2.1,1,4.4,1.7,6.5,.4,2.09,1.39,3.98,1.69,6.06,1.82,.25,3.67,.38,5.55,.38,22.45,0,40.73-18.28,40.73-40.74S126.3,10.04,103.85,10.04Zm36.56,39.23c.2,.9,.7,2,1.7,2.2,.2,.2,.5,.3,.9,.3-.4,1.1-1.3,1.9-2.1,2.8-.2-.6-.3-1.4-.3-1.9-.3-.9-.1-2.2-.4-3l.2-.4Zm-1.6,7.3c-2.1,1.4-4.2,2.6-6.5,3.5-1.2-.1-1.6-1.5-3-1.1-.4-.5-.9-1.2-1.5-1.3-.2-3.2-.2-6.6-.7-9.5,3.8-1.2,7.5-2.9,10.6-5.7,1.3,2.4,1,5.6,2,8.1,.1,2,1.7,4.8-.9,6Zm.2-13l-.8-1.8,.3-.3c.4,.6,.6,1.5,.5,2.1Zm-3.2-9.5c0,1.6,1.9,2.4,1.6,4.2,1,.7,.9,1.7,.9,2.7-.5-.2-.4-1-.8-1.4v-.3c-1-1.9-1.7-4-2.9-5.8,.4,.3,.9,.2,1.2,.6Zm-2.3-1.1c1.8,2.8,3.2,5.8,4.1,8.9-3,2.6-6.8,4.5-10.5,5.5-.8-5.1-2.7-9.8-4.7-14.4,2.7-1,5.4-2.7,7.4-4.9,1.1,1.3,2.5,2.6,2.8,4.3l.9,.6Zm-21.4,14.4c-.2-2.3-.6-5-.8-7.5,.5-.5,.6-1.4,.5-2.1,.3-.7,1-1.3,1-2,3-.8,6.2-1.1,9-2.4,1.1,1.2,1.4,2.9,2.1,4.4,1.3,3.2,2.1,6.5,2.7,10-3,1.2-6.3,1.6-9.5,2.3-1.5,.3-3.1,.4-4.7,.6-.4-1.1-.1-2.3-.3-3.3Zm-.2,10c-.2,.3-.7,.3-1,.4-.4-.5-1.2-.6-1.7-.3-.4,0-.9-.4-1.3-.7-1-.7,.9-2.3-.9-2.7-1-.3-2.3,1.1-2.6-.2,.3-.5,.6-1.1,.4-1.7-.1-.2-.4-.4-.5-.6-.6,0-1.3,0-1.8,.4-.6,.5-.8,1.6-1.8,1.1-.2-.5-.6,.1-.9-.2,.1-.5,0-1.3,.4-1.7,3.8,.2,8,.1,11.7-.3,.2,2-.1,4.6,0,6.5Zm-6.7-30.4c.4,.5,1.4,.6,1.3,1.5-1,.6-1.8-1.2-2.7-.2-1-.5-1.9,.5-2.8,.4,1.2-1.1,.9-3.7,3.1-3.5,.2-.1,.3-.2,.5-.2-.2,.7,.2,1.4,.6,2Zm-1.6,19.6c.1-.1,.3-.2,.4-.3,1.5,.1,2,1.9,3.1,2.6,.6,.2,.9-.3,1.2-.6-.3-1.8,0-3.7,1-5.3,0-.4,.3-.6,.4-1,.5,.1,1-.2,1.2-.6v-.1c.4,2.9,.6,5.9,.8,9-3.8,.5-7.7,.5-11.8,.4-.6-.5-.6-1.3-1.1-1.9,0-.9,.9-1.4,1.5-1.8,1.1-.3,2.3,.2,3.3-.4Zm12.9-16.5c-.5-1.9-2.6-1.3-3.4-2.8-.7-.4-1.7,.1-2-.8-.6-.9-1.7-1.4-2.6-1.7,2.4-.1,4.7-.7,7-1.2,2.3,3,4.6,6.1,6.1,9.4-2.7,1.2-5.6,1.8-8.5,2.3-.1-.9-.1-1.8-.6-2.5,.5-.6,.9,.2,1.5,.2,.9,.1,2.1,.4,2.6-.6,.8-.7,.1-1.6-.1-2.3Zm-16.8,26.5c.6-.6,1,.3,1.5,.4,.5-.1,1.2-.2,1.6,.1-.6,.4,.4,.8,.6,1.1,2-.1,2.8,2.1,4.6,2.4,.1,1.5,2.4,1.5,1.6,3.2,.2,1.4-1.6,.6-2.3,1-4.6,.1-8.9,0-13.3-.6,0-3.6-.2-6.5,.2-9.7,1.6,0,2.1,2.1,3.8,1.8,.5,.4,1.2,0,1.7,.3Zm30.9-29.6c0,.5,.6,.9,1,1.1,.7,.5,.3,1.7,1,2.4v.1c-.7-.9-1.7-2-2.4-3,.1-.3,.2-.6,.4-.6Zm-3.7-3.3c1.2,.7,3,1.2,3.2,2.7-.1,.2-.1,.4-.4,.5-1.7-1.6-3.3-3.2-5.1-4.6,1.5-.5,1.2,1.3,2.3,1.4Zm-5.2-2.3c2.8,1.5,5.4,3.5,7.7,6.2-.2,.9-1.5,1.6-2.2,2.4-1.6,1-3.2,2.1-5.1,2.5,0-.4-.4-.5-.5-.9-1.5-3.1-3.6-5.7-5.6-8.5,1.5-.5,2.9-1.3,4.2-2.4,.7,0,.9,.5,1.5,.7Zm-6.5-4.7l.2,.2-.4-.2h.2Zm-1.7,1c.4-.1,.6-.5,1-.6l3.1,1.7c.1,.5,.7,1,1.1,1.2,.1,.1,.3,.1,.4,.1h.5c-.1,.5-.7,.7-1,1.1-1,.6-2.1,1-3.1,1.3l-4.1-4.5c.5-.5,1.4-.2,2.1-.3Zm-4.2,1.2c.3-.4,.7-.5,.7-1,.4-.1,.6,.3,1,.3,1.2,1.2,3.1,2.9,4.1,4.4l-.4,.3c-2.2,.5-4.5,.8-6.8,1.1l-.4-.4c-.1-1-.7-1.8-.9-2.8,1.5,.5,1.4-1.8,2.7-1.9Zm-5.6-1.1c.5,.7,.9,1.7,1.7,2.1,.8,1.1,1,2.6,1.5,3.9-.2,.1-.5,.1-.7,.1s-.5,0-.7-.1c.4-.4,.4-1,.3-1.5-.3-.8-1.2-1.4-1.9-1.8-1.1-.2-2,.4-3.1,.4,.4-1.5,.9-2.9,1.4-4.4,.1,.8,.9,1.1,1.5,1.3Zm-1.9-2l.2,.2c-.7,1.5-1,3.2-1.7,4.7-.3-.7-1.3-.7-1.9-.4-.7,.4-1.4,1.2-1.8,1.8-.4,0-.5-.6-.7-.9-.2-.5-.8-.5-1.1-.7,1.5-1.7,3.6-3.6,5.6-5.1,.4,0,.7,.5,1.4,.4Zm-2.6-1.1c.1,.2,.4,.3,.4,.5-2,1.8-3.8,3.4-5.8,5.2,0-.5-.5-.6-.8-.9-.3,0-.6,.1-.8-.3,.3-.8,1.2-1.5,.9-2.4,2-1.1,4-2.1,6.2-2.6-.2,.1-.1,.3-.1,.5Zm-5.9,41.8c-.3,2.4,0,4.8-.1,7.4-5.1-.5-10-1.6-14.7-3.1-.2-4.6,.1-9.1,1.2-13.4,2.8,1.2,5.9,1.7,9,2.4,.2,.4,.3,.8,.6,1.1,.6,.5,1.9-.1,1.8,.9,1.2,.3,.8,1.9,2.1,2.2,.3,.6,0,1.7,.1,2.5Zm-9.2-14.7c1.1,1,.5,3.2,2.4,3.4,1.5,.6,1,2.5,2.2,3.5l-.2,.4c-3-.3-5.8-1.3-8.5-2.3-.4-.3,0-.8,0-1.1,.9-4,2.5-7.8,4.4-11.3,.2-.1,.3,.2,.4,.4,.3,1.9-.8,3.5-1,5.3,.6,.4,.5,1.1,.3,1.7Zm.1-9.5c-.2,.1-.4-.2-.7-.1v-.1c-1.38-.62-2.75-1.29-4-2.14-.56-.37-1.1-.79-1.6-1.26,.2-.6,.7-1,1.1-1.5,.61,.04,1.14-.06,1.63-.24,.65-.23,1.25-.58,1.87-.86,.7,.1,1.3,.2,1.9-.1l.8,1.5c.4,1.8-.7,3.2-1,4.8Zm-2.4-11.3c.33,.8,.07,1.38-.38,1.88-.79,.88-2.18,1.55-2.12,2.82-.4,.3-.3,.9-.5,1.2-.4,.4-.9,1-1.3,1.2-1-1-1.7-2.2-1.7-3.6,1.63-1.63,3.64-3.15,5.71-4.52,.73-.48,1.46-.94,2.19-1.38-.5,.6-1.9,1.2-1.9,2.4Zm-4,8.2c.49,.44,.99,.84,1.5,1.21,1.49,1.09,3.09,1.92,4.8,2.59,.2,.2,.2,.6,.1,.8-2.2,4-3.8,8.2-5,12.7-2.4-.7-5-2-7.1-3.5-.55-.55-1.28-.85-1.78-1.53-.04-.05-.08-.11-.12-.17,1-3.1,2.7-5.9,4.5-8.6,.9-1.2,1.8-2.4,2.8-3.5h.3Zm1.3,17.9c-1,4.3-1.2,8.9-1.2,13.5-2.72-.93-5.31-1.95-7.68-3.5-1.2-.77-2.34-1.69-3.42-2.8,.11-.98,.23-1.95,.38-2.91,.49-3.35,1.24-6.56,2.72-9.59,2.6,2.8,6,3.7,9.2,5.3ZM97.41,13.87v.2c-2.2,.7-4,2.4-6.3,2.7-.5,.2-.6,.8-1,1,.1-.8,1.2-1.6,1-2.6,1.8-.7,3.7-1.1,5.5-1.7,.3-.2,.6,.2,.8,.4Zm-2.8-2.4c.6,.6,1.3,0,1.9,0v.7c-2.4,.4-4.6,1-6.9,1.5,1.2-1.5,3.2-1.7,5-2.2Zm-3.9,2.4c2-.4,3.8-1,5.9-1.1v.2c-1.9,.5-3.9,1-5.8,1.7-.6-.1-1.4-.2-1.8,.3-.1,.1-.1,.3-.3,.4h-.2c.3-1.4,1.4-1.1,2.2-1.5Zm-12.8,5.8c.5-.2,.7-.7,1.2-1,.61-.66,1.33-1.03,2.1-1.32,.85-.33,1.75-.56,2.6-.98,1.3,0,2.1-1.6,3.5-1.1,.2-.1,.4-.2,.6-.2-.1,.7-1,.3-1.5,.6-1.2,.7-1.9,1.4-3,2.4-.64,.44-1.29,.87-1.93,1.31-1.98,1.31-3.96,2.63-5.77,4.29,0-1.5,.7-3.2,2.2-4Zm-.8,8.9c-2.9,3.7-5.6,7.7-7.3,12-.5,0-.9-.7-1.2-1.1-.6-1.4-1.7-2.9-1-4.5,1.9-3.6,4.5-7,7.5-9.9,.6,0,.3,.9,.6,1.2,.3,.9,.8,1.6,1.4,2.3Zm-8.9,3.1c1.9-3.5,4.3-6.9,7.3-9.8-.2,.6-.2,1.6-.4,2.4-3.1,2.9-5.9,6.5-7.9,10.1-.4-1,.5-1.9,1-2.7Zm-1.7,3.7c-.1,1.1-.7,2.3-1.2,3.4,.2-1,.8-2.3,1.2-3.4Zm-1.81,13.65c.09-.17,.21-.35,.31-.55,.1-1.3-.6-3,.6-4,.01-.02,.01-.03,.02-.05,.22-.67-.9-1.06-.12-1.45,.8-.9-.8-1.6-.3-2.6,.6-1.2,.9-2.6,1.7-3.7,.5,1.7,1.4,3.3,2.6,4.6-.14,.35-.27,.7-.4,1.06-1,2.74-1.84,5.58-2.33,8.55-.16,.92-.28,1.85-.37,2.79h-.2c-1.1-1-2-2.4-1.6-4.1-.05-.2,0-.37,.09-.55Zm1.11,15.75c.2-.8,.8-1.6,.1-2.4-.5-1.7,.6-3.6-.6-5-.4-1.4-.3-3.1-.4-4.5,2.9,1.5,.7,4.7,1.5,7.2,0,.8,.4,1.7,.1,2.4,.6,.5,.2,1.7,.7,2.4l.5,2.7c-1.6-.4-1.2-1.9-1.9-2.8Zm7.8,7.4c-.98-.6-2.13-1.05-3.16-1.68-.87-.51-1.64-1.16-2.14-2.12-1-4.4-2-8.5-1.5-13.3,1.14,1.03,2.35,1.91,3.62,2.67,2.29,1.4,4.77,2.43,7.28,3.33,.4,4.7,.9,9.3,2.4,13.6-2.2-.6-4.4-1.6-6.5-2.5Zm7.4,2.9c-1.6-4.2-2.2-8.9-2.5-13.5l.1-.1c4.7,1.6,9.7,2.6,14.6,3.1,.3,4.5,1,9,1.7,13.4-4.8-.7-9.6-1.3-13.9-2.9Zm13.1-10.5c4.2,.4,9.2,.7,13.6,.4l1.6,.1c-.4,.9-1.1,2-.4,3-.1,.5,.1,.8,.4,1.1,1.2,.2,1.2,1.6,2,2.3,0,2.2-.4,4.4-.6,6.6-4.8,.5-10.2,.4-14.9-.1-.8-4.3-1.6-9.1-1.7-13.4Zm12.6,26.7c-2.38,.4-4.47,.01-7.04,0-.03,0-.05,0-.08,0-.57-.11-.28-.79-.58-1.09-1.4-3.6-2.2-7.7-3.1-11.4l.3-.1c4.9,.6,9.3,.4,14.3,.2-.4,3.9-1.1,8.2-2.1,12.1-.5,.5-1.1,.1-1.7,.3Zm8.4-9.5c-.5,1.9-2.3,3.3-1.6,5.5-.1,.2-.2,.4-.3,.7-.2,.7-.1,1.5,.2,2.1-1.4,.6-2.9,.6-4.4,1,.7-4,1.5-8.2,2-12.2,1.6-.2,3.2-.4,4.9-.5-.1,1-1,2-.8,3.4Zm.1-4l-4,.4c.3-2,.4-3.7,.6-5.8,.3,1.4,2.2,1.6,2.7,2.8,.8,.4,1.6,1,1.5,2,.3,.7-.5,.4-.8,.6Zm5.4-21.4c-1-.1-2.4-.2-3.2,.4-1.7-.6-3.2,.6-4.8,1-.3-2-.1-4.3-.4-6.6,2.4-.4,4.5-.6,6.9-1.1,2.6-.5,5.1-1.1,7.5-1.8l.3,1.4c.4,2.4,.4,5.1,.4,7.7-.9,.3-1.9,.1-2.8,.4-.9-1.4-2.6-1-3.9-1.4Zm15.8,17.6c-3.3,4.7-7.3,8.5-12.1,11.3-.5-1.6,2-1.9,1.7-3.4,0-2.5,1.4-4.3,2.6-6.3,3.6-1.3,6.9-2.9,9.9-5.4-.6,1.6-1.4,2.5-2.1,3.8Zm-7.3,1c.1-.2,.1-.4,.1-.6v-.6c.8-.5,2-.7,2.4-1.6-.2-.7,.2-1.3,.8-1.7-.4-3.1,3.1-4.3,2.7-7.3,.3-.7,.6-1.6,.1-2.3l-.6-.6c1.8-1.1,3.8-2.3,5.6-3.7h.2c.1,4.4-.4,8.8-1.6,13-3,2.5-6.2,4.3-9.7,5.4Zm11.2-8.1c-.2,.3-.4,.5-.5,.8,.1-1.9,.7-4,.9-5.9,.1-2.1,.2-4.2,.2-6.4,.7-1.1,2.1-1.7,2.5-3.1,0,1.4,0,3.2-.4,4.4-.5,3.5-1.3,7-2.7,10.2Z"/>
      </g>
      <g>
        <g>
          <path class="cls-7" d="M66.61,33.44c-.57,.86-.35,3.44-.32,4.46,.03,1.16,.09,2.32,.19,3.48,.2,2.36,.54,4.73,1.18,7.01,.96,3.41,1.7,5.11,3.55,8.14,.54,.89,2.36,2.86,3.21,3.47,15.58,11.11,50.79-27.6,91.16,8.44h-7.33s5.89,3.83,6.54,5.72c0,0-18.72-7.37-36.85-7.13-6.96,.09-14.29,2.32-19.76,5.01-21.42,10.49-43.1,6.11-49-9.97-1.25-3.41-2.14-7.99-1.79-12.47,.75-9.73,8.28-15.97,8.79-16.01"/>
          <path class="cls-4" d="M66.65,33.47c-.44,1.2-.11,2.56-.02,3.82,.29,6.45,1.13,13.06,4.7,18.59,4.49,7.8,13.36,6.02,20.67,3.92,10.03-2.93,20.02-6.61,30.54-7.4,16.08-1.62,31.63,4.88,43.37,15.66,0,0,.99,.87,.99,.87-.79,0-7.69,0-8.65,0,0,0,.27-.92,.27-.92,1.85,1.24,3.66,2.52,5.28,4.06,.53,.55,1.09,1.04,1.45,1.92l.43,1.03-1.08-.41c-11.33-4.14-23.36-7-35.46-7.17-6.04-.13-12.04,1.28-17.65,3.5-5.55,2.5-11.15,5.09-17.19,6.18-11.7,2.41-26.15,.3-33.08-10.46-3.25-5.21-4.47-11.57-3.92-17.64,.74-6,3.95-11.96,8.87-15.5,.05-.03,.09,.06,.04,.08-.64,.33-1.21,.91-1.77,1.43-6.15,5.97-8.31,14.79-6.24,23.03,3.38,16.8,20.97,21.68,35.97,18.43,6.01-1.11,11.52-3.71,17.04-6.23,11.39-5,24.22-4.09,36.12-1.6,5.98,1.26,11.87,2.89,17.62,5.02,0,0-.65,.63-.65,.63-.56-1.11-1.83-2.1-2.83-2.92-1.51-1.22-3.27-2.38-4.9-3.46,1.53,0,7.44,0,8.99,0,0,0-.33,.87-.33,.87-11.56-10.61-26.79-17.01-42.62-15.41-10.46,.79-20.35,4.42-30.37,7.31-7.71,2.22-16.93,3.86-21.68-4.37-3.54-5.64-4.66-12.46-4.69-19.01,.07-1.31-.03-2.74,.68-3.91,.03-.05,.12,0,.08,.06h0Z"/>
        </g>
        <g>
          <path class="cls-6" d="M68.55,69.85l-.06-.03c-.61-.31-.94-.68-.98-1.12-.02-.17,0-.34,.09-.51,.03-.06,.07-.13,.12-.19,.14-.18,.36-.37,.65-.55,.11-.05,.21-.05,.29,0,.03,.01,.05,.03,.07,.06,.04,.08,.04,.15,0,.21l-.02,.03s-.05,.05-.08,.07c-.22,.14-.39,.27-.49,.4-.03,.04-.05,.08-.07,.11-.05,.1-.07,.19-.05,.28,.02,.15,.09,.29,.22,.43,.13,.13,.29,.25,.49,.35l.09,.04c.39,.19,.84,.29,1.33,.31,.49,.02,.95-.08,1.38-.29,.24-.13,.43-.29,.57-.48,.04-.07,.08-.13,.12-.2,.07-.14,.12-.29,.14-.45,.04-.35-.06-.73-.32-1.13-.17-.28-.44-.57-.81-.86-.04-.04-.07-.08-.07-.13,0-.04,0-.08,.02-.11,0-.01,.01-.03,.02-.04l.04-.04c.06-.05,.13-.08,.21-.08,.89-.02,1.59-.09,2.11-.22,.6-.16,.99-.36,1.17-.6,.02-.03,.04-.06,.05-.09,.05-.11,.06-.21,.02-.31-.07-.17-.22-.32-.45-.43-.32-.16-.73-.23-1.22-.19-.45,.03-.92,.19-1.43,.47-.11,.05-.2,.05-.28,0-.03-.02-.06-.04-.08-.06-.04-.07-.05-.14-.01-.21,0,0,.01-.02,.02-.03,.02-.03,.05-.05,.09-.07,.6-.33,1.17-.52,1.7-.55,.6-.04,1.1,.04,1.5,.24,.33,.17,.54,.38,.65,.65,.08,.21,.07,.42-.03,.62-.03,.05-.06,.11-.1,.16-.05,.07-.12,.14-.19,.2-.22,.21-.57,.38-1.05,.53s-1.11,.25-1.9,.3c.19,.19,.35,.38,.47,.57,.31,.49,.44,.95,.39,1.39-.03,.21-.09,.4-.18,.58-.05,.1-.1,.19-.17,.28-.2,.27-.45,.48-.76,.65-.52,.26-1.07,.39-1.66,.37-.59-.02-1.12-.14-1.58-.35Z"/>
          <path class="cls-6" d="M75.6,72.45h-.05c-.35-.1-.63-.29-.85-.58-.15-.2-.25-.45-.3-.74-.06-.29-.05-.63,0-1.02,.01-.1,.03-.21,.06-.32,.07-.29,.17-.61,.31-.94,.06-.14,.13-.29,.21-.44,.32-.63,.76-1.25,1.32-1.86,.49-.52,1-.89,1.54-1.1,.05-.02,.1-.02,.15-.01,.08,.02,.13,.07,.16,.14,0,.03,0,.06,0,.09,0,.01,0,.03-.02,.05-.03,.07-.09,.13-.17,.16-.44,.17-.87,.48-1.3,.94-.52,.56-.93,1.14-1.22,1.73-.07,.15-.14,.29-.2,.42-.14,.33-.24,.64-.3,.92-.05,.24-.08,.52-.08,.83,0,.32,.09,.6,.28,.85,.17,.22,.38,.36,.64,.42,.24,.06,.52,.04,.82-.05,.42-.12,.85-.4,1.29-.83,.45-.45,.86-1.07,1.2-1.88,.14-.34,.25-.68,.33-1.02,.02-.08,.03-.16,.05-.24,.12-.63,.11-1.19-.04-1.66-.14-.44-.43-.72-.86-.84-.1-.02-.22-.04-.35-.04h-.05c-.06-.02-.1-.05-.12-.09-.04-.05-.05-.11-.03-.16v-.03c.04-.05,.07-.09,.12-.13,.11-.07,.3-.07,.59,0,.62,.15,1.02,.52,1.21,1.11,.17,.54,.19,1.16,.06,1.86l-.04,.19c-.09,.39-.21,.77-.38,1.16-.38,.89-.83,1.59-1.37,2.1-.5,.48-1,.79-1.5,.94-.4,.12-.76,.13-1.09,.06Z"/>
          <path class="cls-5" d="M83.7,80.84h-.06c-.37,.03-.58-.28-.63-.92,0-.2,0-.46,.04-.76,.12-1.08,.58-2.46,1.37-4.12,.33-.66,.7-1.31,1.11-1.93,.27-.4,.59-.82,.95-1.26,.1-.75,.18-1.39,.24-1.94,0-.07,.02-.17,.02-.31h-.01c-.75,1.23-1.37,1.86-1.85,1.89-.3,.02-.46-.16-.48-.53,0-.1,0-.22,.01-.36l.02-.13c.16-.96,.29-1.45,.4-1.49,.04-.05,.1-.08,.16-.08,.14,0,.22,.07,.24,.24-.17,.57-.27,1-.3,1.29-.01,.11-.01,.21,0,.31,0,.09,.02,.16,.04,.23h.03c.24-.1,.56-.44,.98-1.04,.29-.41,.6-.92,.93-1.54,.07-.07,.14-.11,.2-.11h.05c.12,0,.18,.06,.2,.22,0,.34-.05,.82-.12,1.45-.09,.81-.14,1.24-.15,1.27,.56-.54,.95-.88,1.17-1.02,.59-.43,1.05-.71,1.38-.82,.16,.01,.24,.07,.24,.17,0,0,0,.02,0,.04v.05c-.02,.12-.16,.23-.41,.33-.39,.21-.81,.49-1.25,.84-.82,.72-1.23,1.14-1.25,1.27-.11,.93-.37,2.34-.79,4.25-.29,1.14-.53,1.92-.72,2.34-.13,.33-.29,.65-.46,.96-.46,.79-.89,1.2-1.27,1.22Zm.03-.5c.18-.01,.45-.31,.81-.89,.26-.49,.47-.97,.63-1.46,.24-.69,.51-1.74,.8-3.15,.21-1.16,.33-1.84,.35-2.04h0s0-.01-.01-.01c-.52,.73-.96,1.45-1.34,2.17-.34,.69-.62,1.32-.82,1.87-.34,.96-.55,1.72-.61,2.28l-.03,.26c-.02,.17-.02,.32-.02,.45,.01,.23,.07,.4,.17,.52h.05Z"/>
          <path class="cls-5" d="M90.82,72.25s-.09,.01-.13,.01c-.31,0-.55-.12-.72-.36-.16-.22-.27-.5-.33-.83-.03-.2-.05-.42-.04-.66,0-.29,.03-.58,.09-.87s.14-.53,.24-.74c.18-.35,.39-.54,.61-.58,.13-.02,.23,.01,.32,.1,.07,.07,.11,.17,.13,.29,0,.04,.01,.07,.01,.11v.04c0,.21-.07,.48-.21,.82-.13,.34-.36,.74-.69,1.2l.03,.16c.04,.25,.12,.46,.24,.62,.12,.16,.28,.22,.48,.19,.18-.03,.41-.16,.68-.38,.36-.32,.71-.7,1.03-1.14,.43-.61,.73-1.09,.89-1.46,.05-.1,.12-.16,.21-.18,.04,0,.07,0,.1,0,.08,.03,.12,.09,.14,.16v.04s0,.07-.02,.1c-.17,.41-.49,.94-.95,1.59-.35,.49-.73,.91-1.14,1.25-.36,.29-.68,.46-.96,.5Zm-.74-2.24c.29-.48,.44-.86,.44-1.15,0-.03,0-.06,0-.09v-.04s-.1,.11-.17,.24c-.14,.29-.22,.63-.26,1.04Z"/>
          <path class="cls-5" d="M94.56,67.54h.05c.15-.05,.29,0,.42,.15,0,0,0,0,0,.01h0c.04-.18,.12-.29,.24-.32,.11-.03,.19,.02,.24,.13,0,.01,0,.03,0,.04h0c-.01,.3-.01,.53,0,.73,.01,.15,.04,.29,.07,.42,.09,.35,.25,.58,.49,.7,.13,.05,.27,.06,.42,.02,.35-.09,.7-.41,1.03-.95,.11-.2,.2-.37,.26-.54,.09-.25,.14-.38,.15-.41,.05-.07,.1-.11,.16-.12h.01c.1-.03,.18,.01,.23,.12v.05s.01,.03,.01,.03c0,.06-.07,.28-.23,.66-.07,.16-.18,.36-.33,.61-.39,.57-.8,.92-1.25,1.04-.36,.09-.68,.02-.96-.22-.16-.14-.3-.37-.41-.7l-.04-.15h0c-.37,1.16-.73,1.79-1.11,1.89h-.04c-.18,.06-.33-.01-.46-.2-.03-.07-.06-.15-.08-.22-.02-.06-.03-.11-.04-.17v-.09c-.04-.33,.03-.73,.19-1.21,.08-.21,.18-.43,.31-.68,.22-.37,.43-.58,.64-.63Zm-.68,2.43c0,.06,.02,.12,.03,.16,.02,.07,.04,.12,.07,.13,.21-.06,.48-.67,.83-1.83,.02-.06,.03-.13,.02-.22,0-.03,0-.06,0-.08-.02-.08-.06-.12-.12-.13h-.03s-.03,0-.03,0c-.13,.03-.29,.26-.49,.68-.22,.51-.31,.94-.28,1.29Z"/>
          <path class="cls-5" d="M98.09,65.95c.14-.05,.28,.07,.42,.36v.03s.04,.05,.06,.05c.13-.01,.26-.04,.4-.1h.03c.23-.09,.55-.28,.97-.55h.04c.12-.06,.22-.02,.29,.12v.05s0,.3-.03,.78c-.06,.89-.04,1.54,.06,1.96,.02,.09,.05,.17,.07,.25,.09,.25,.21,.4,.36,.44,.05,.01,.11,0,.17-.02h.04c.39-.16,.85-.74,1.38-1.77,.24-.52,.47-1.13,.7-1.83,.03-.08,.09-.14,.17-.17h.03c.1-.05,.19,0,.27,.1l.02,.06v.04c.03,.07-.08,.41-.3,1.02-.1,.32-.35,.85-.75,1.59-.49,.82-.94,1.3-1.35,1.45l-.06,.02c-.42,.15-.77,0-1.04-.45-.04-.08-.08-.16-.11-.24-.03-.08-.05-.15-.06-.22l-.03-.14c-.12-.52-.15-1.28-.07-2.29-.22,.14-.42,.25-.6,.31-.24,.07-.39,.12-.47,.12-.23,.05-.41,.03-.55-.04-.15-.09-.24-.19-.28-.3v-.04s-.03-.08-.03-.08c-.05-.19,.02-.35,.19-.49l.08-.03Z"/>
          <path class="cls-5" d="M104.23,69.81c-.12,.06-.23,.07-.33,.04-.13-.04-.23-.12-.29-.25-.01-.03-.03-.06-.04-.1-.05-.18-.03-.42,.06-.71,.11-.38,.3-.82,.58-1.32,.15-.28,.31-.56,.5-.85-.19-.17-.41-.31-.66-.41l-.04-.02c-.25-.12-.47-.26-.66-.43l-.02-.03c-.07-.07-.12-.16-.16-.25-.02-.05-.04-.1-.06-.16-.03-.14-.04-.3-.01-.48,.04-.33,.23-.73,.58-1.19,.2-.25,.33-.38,.38-.4,.08-.04,.16-.02,.23,.05,.01,.01,.03,.03,.03,.05,0,.01,.01,.03,.01,.04,.02,.09,0,.18-.07,.27-.1,.11-.19,.21-.27,.31-.28,.37-.43,.67-.46,.9-.01,.1-.01,.18,0,.25,0,.03,.02,.05,.03,.08,.02,.04,.04,.08,.07,.11,0,.01,.02,.03,.03,.03,.16,.14,.37,.27,.61,.38l.04,.02c.24,.12,.47,.25,.68,.42,.61-.91,1.24-1.7,1.89-2.37,.02-.02,.05-.04,.08-.05,.09-.04,.17-.02,.25,.06l.02,.04v.05c.04,.09,0,.19-.07,.29-.65,.66-1.27,1.44-1.86,2.34,.03,.05,.05,.09,.08,.14,.03,.07,.06,.15,.08,.23,.05,.21,.06,.47,.02,.77-.02,.17-.06,.34-.11,.5-.15,.48-.35,.87-.59,1.18-.18,.23-.37,.38-.55,.46Zm-.1-.48c.09-.04,.2-.14,.32-.3,.2-.25,.36-.57,.48-.96,.12-.37,.15-.68,.08-.92,0-.04-.02-.08-.03-.11-.46,.75-.76,1.37-.91,1.87-.06,.2-.08,.33-.07,.41v.02s.01,.01,.02,.02,.02,0,.03,0c.02,0,.04,0,.07-.01Z"/>
          <path class="cls-5" d="M113.9,64.35c-.18,.05-.35-.02-.52-.18-.21-.22-.43-.69-.66-1.42-.08,.39-.19,.75-.32,1.08-.14,.38-.32,.59-.52,.64-.31,.05-.57-.26-.76-.92l-.02-.07c-.13-.51-.22-1-.26-1.46-.01-.12-.02-.22-.02-.31,0-.07,.02-.13,.06-.19,.04-.05,.09-.09,.16-.11,.07-.01,.13,0,.17,.04,.04,.03,.06,.07,.07,.11,0,.01,0,.03,0,.04,0,.09,0,.18,.01,.28,.03,.42,.11,.86,.23,1.32l.03,.12c.13,.44,.23,.66,.3,.66,.09-.05,.21-.4,.35-1.07,.05-.21,.11-.49,.18-.84,.04-.19,.07-.33,.09-.42,.05-.12,.12-.19,.21-.21,.03,0,.06,0,.09,0,.09,.02,.14,.07,.16,.14h0c.04,.19,.08,.36,.12,.52,.23,.91,.46,1.46,.67,1.66,.06,.06,.1,.09,.13,.08,.07-.03,.15-.14,.22-.34,.29-.73,.45-1.95,.46-3.67,0-.07,.03-.13,.07-.18s.09-.09,.15-.1c.07-.01,.13,0,.18,.03,.04,.03,.06,.07,.07,.11,0,.01,0,.03,0,.04v.03s0,.09,0,.09c.01,.16,.04,.32,.08,.47,.04,.17,.12,.37,.23,.6,.11,.23,.28,.44,.5,.64,.22,.2,.46,.32,.72,.37,.14,.02,.27,.02,.41-.02,.1-.03,.21-.07,.31-.13,.33-.2,.63-.63,.9-1.3,.05-.1,.11-.16,.19-.18,.04,0,.08,0,.12,0,.07,.03,.12,.08,.14,.14,0,0,0,.02,0,.04,0,.04,0,.08-.02,.13-.33,.8-.71,1.33-1.15,1.59-.16,.1-.31,.17-.46,.21-.2,.05-.39,.06-.59,.02-.33-.06-.63-.21-.91-.46-.2-.18-.38-.41-.53-.67-.08,1.04-.23,1.82-.44,2.34-.16,.4-.37,.64-.62,.7Z"/>
          <path class="cls-5" d="M123.09,63.81c-.47,.04-.77-.28-.9-.97-.02-.11-.03-.23-.04-.35-.06-.66-.05-1.51,.03-2.56l.03-.4,.08-.96c-.19,.54-.4,1.07-.64,1.59-.21,.45-.42,.86-.65,1.23-.23,.37-.47,.67-.73,.89-.25,.23-.51,.35-.78,.38-.04,0-.08,0-.12,0h-.06c-.4-.05-.65-.33-.77-.83-.03-.13-.05-.27-.07-.42-.02-.23-.02-.48,0-.75,.02-.21,.04-.41,.08-.6,.01-.06,.04-.12,.09-.16,.05-.04,.1-.07,.16-.07,.08,0,.14,.02,.18,.07,.03,.03,.04,.07,.05,.11,0,.01,0,.03,0,.04v.03c-.04,.17-.06,.34-.08,.53-.02,.17-.02,.35,0,.52,0,.06,0,.12,.01,.18,.05,.51,.21,.8,.49,.85,.01,0,.04,0,.09,0,.18-.02,.37-.12,.56-.32,.19-.2,.39-.45,.57-.77,.19-.32,.37-.67,.55-1.06,.45-1.02,.81-2.01,1.08-2.97l-2.26,.21c-.07,0-.12-.01-.17-.06-.03-.03-.05-.07-.05-.12,0-.01,0-.03,0-.04,0-.07,.03-.13,.08-.18s.11-.08,.18-.09l2.36-.22,.04-.14c.04-.17,.08-.32,.12-.46l.04-.14,.06-.42c.01-.07,.04-.12,.09-.17,.05-.05,.1-.07,.16-.08,.08,0,.13,.02,.17,.06,.03,.04,.05,.08,.05,.12,0,.01,0,.03,0,.04v.03s-.02,.05-.02,.08v.03s0,.03,0,.03c0,.03-.02,.09-.04,.19-.03,.13-.07,.38-.12,.77l4.52-.43c.07,0,.12,.01,.17,.05,.03,.04,.05,.08,.05,.12,0,.02,0,.03,0,.05,0,.07-.03,.12-.08,.18-.05,.05-.11,.08-.18,.09l-4.54,.43c-.11,.8-.19,1.62-.26,2.46l-.03,.44c-.08,1.02-.09,1.83-.03,2.46,.01,.12,.03,.23,.04,.33,.05,.29,.14,.48,.25,.57,.07,.05,.15,.08,.24,.07,.06,0,.13-.03,.21-.06,.24-.12,.49-.32,.77-.6,.44-.45,.84-.96,1.21-1.51,.37-.56,.64-1.02,.79-1.39,.06-.11,.14-.17,.24-.18,.02,0,.05,0,.08,0,.08,.04,.13,.1,.13,.18,0,.02,0,.03,0,.04,0,.03,0,.06-.01,.08-.17,.39-.46,.89-.85,1.49-.4,.6-.83,1.14-1.29,1.62-.33,.33-.65,.57-.95,.72-.14,.07-.27,.11-.4,.12Zm-4.18-4.57c-.07,0-.12-.01-.17-.05-.03-.03-.05-.08-.05-.12,0-.01,0-.03,0-.04,.01-.15,.03-.28,.07-.39v-.02c.01-.07,.04-.12,.09-.17,.05-.04,.1-.07,.16-.08,.08,0,.13,.02,.17,.06,.03,.03,.04,.07,.05,.12,0,.01,0,.03,0,.04v.03c-.03,.08-.05,.2-.06,.36,0,.07-.03,.13-.08,.18s-.11,.08-.18,.09Z"/>
          <path class="cls-5" d="M126.26,62.57c-.06,0-.11-.02-.15-.06-.04-.04-.05-.09-.05-.15,.04-.62,.19-1.54,.45-2.73,.3-1.38,.65-2.7,1.03-3.95,.25-.8,.43-1.3,.55-1.5,.08-.1,.16-.15,.25-.15,.03,0,.06,0,.09,.02,.08,.05,.11,.11,.11,.18,0,.01,0,.03,0,.04,0,.03-.02,.06-.04,.1-.1,.18-.27,.65-.51,1.42-.23,.77-.47,1.65-.72,2.64-.1,.4-.19,.79-.27,1.18-.09,.43-.18,.85-.25,1.25,.5-.95,.95-1.59,1.34-1.9,.17-.14,.33-.2,.47-.2,.07,0,.13,.02,.19,.05,0,0,0,0,.02,.01,0,0,.02,.01,.03,.03,0,.01,.01,.02,.01,.03,.06,.1,.11,.26,.14,.49,.04,.2,.09,.43,.15,.7,.15,.63,.38,1.03,.68,1.19,.06,.03,.13,.05,.21,.05,.15,0,.34-.05,.55-.16,.31-.18,.68-.54,1.11-1.07,.08-.08,.16-.12,.24-.12,.04,0,.07,.01,.11,.03,.06,.05,.09,.11,.09,.18,0,.01,0,.02,0,.04,0,.04-.03,.08-.05,.11-.8,1.01-1.51,1.51-2.14,1.48-.14,0-.27-.04-.39-.1-.4-.21-.69-.67-.87-1.38-.12-.5-.18-.82-.17-.96v-.04s0-.05,0-.06c0,0,0,0-.02,.02,0,0-.03,.02-.06,.05-.12,.09-.25,.24-.42,.46-.4,.51-.86,1.38-1.4,2.6-.05,.11-.13,.17-.25,.2h-.04Z"/>
          <path class="cls-5" d="M132.69,71.17h-.06c-.36-.06-.51-.41-.43-1.04,.04-.2,.1-.45,.2-.74,.35-1.03,1.08-2.28,2.19-3.74,.46-.58,.96-1.13,1.49-1.66,.35-.33,.75-.68,1.19-1.04,.25-.71,.47-1.32,.64-1.85,.02-.06,.05-.16,.09-.3h-.01c-.99,1.04-1.73,1.53-2.2,1.46-.3-.04-.42-.25-.36-.62,.02-.1,.04-.22,.08-.34l.04-.12c.36-.9,.59-1.36,.71-1.37,.05-.04,.11-.06,.17-.05,.14,.02,.2,.12,.18,.29-.28,.52-.47,.92-.56,1.2-.03,.11-.06,.21-.07,.3-.01,.08-.02,.16-.01,.24h.03c.25-.04,.64-.31,1.17-.8,.37-.34,.78-.78,1.23-1.32,.08-.06,.16-.08,.22-.07h.05c.12,.02,.17,.11,.15,.27-.08,.33-.22,.79-.42,1.39-.26,.77-.4,1.18-.41,1.21,.66-.42,1.11-.67,1.36-.76,.67-.3,1.18-.47,1.52-.51,.15,.04,.22,.12,.2,.22,0,.01,0,.02-.01,.04l-.02,.05c-.04,.11-.19,.19-.46,.24-.42,.12-.89,.31-1.4,.56-.95,.53-1.44,.86-1.48,.98-.3,.89-.85,2.22-1.66,3.99-.52,1.05-.92,1.76-1.19,2.14-.2,.3-.42,.58-.65,.85-.62,.68-1.12,.99-1.5,.93Zm.13-.48c.18,.03,.5-.21,.98-.7,.35-.42,.66-.86,.92-1.3,.38-.62,.86-1.6,1.44-2.92,.45-1.09,.71-1.73,.77-1.92h0s0-.01,0-.01c-.66,.6-1.25,1.22-1.76,1.84-.48,.61-.88,1.16-1.19,1.66-.54,.87-.89,1.57-1.08,2.1l-.08,.25c-.05,.16-.09,.31-.11,.43-.04,.23-.01,.41,.06,.54l.05,.02Z"/>
          <path class="cls-5" d="M141.99,60.53h.05c.12,.03,.25,.19,.38,.47l.07,.29c.38,.46,.81,.74,1.31,.84h.02c.31,.06,.67,.02,1.09-.14,.03,0,.06,0,.1,0h.01c.12,.05,.17,.12,.15,.21v.04s-.03,.05-.03,.05c-.06,.16-.4,.27-1.02,.34-.19,0-.36-.01-.52-.04h-.04c-.41-.08-.79-.29-1.16-.63-.04,.11-.07,.2-.09,.25-.24,.63-.6,1.13-1.08,1.5-.26,.17-.48,.24-.66,.2l-.11-.02c-.29-.06-.44-.3-.45-.74,0-.09,.02-.17,.03-.26,.02-.12,.05-.23,.1-.34l.04-.12c.23-.59,.6-1.05,1.13-1.39,.17-.09,.29-.15,.35-.16,0-.04,0-.07,0-.09v-.04c.07-.14,.17-.22,.31-.23Zm-1.35,2.06c-.05,.12-.08,.23-.1,.34-.04,.21-.02,.37,.08,.48,.04,.02,.07,.03,.1,.04,.13,.02,.33-.12,.61-.44,.22-.28,.39-.57,.51-.86,.05-.14,.09-.26,.11-.38,.02-.11,.03-.2,.03-.29-.06-.1-.1-.15-.11-.15-.25,.04-.49,.2-.74,.48-.2,.25-.36,.51-.47,.79Z"/>
          <path class="cls-5" d="M144.71,64.45c-.06-.01-.12-.04-.17-.07-.17-.11-.25-.28-.27-.51,0-.16,.01-.33,.06-.53,.05-.21,.13-.44,.24-.69,.21-.48,.44-.88,.7-1.21,.1-.09,.2-.13,.3-.1,.02,0,.04,.01,.07,.03,.07,.06,.1,.13,.08,.21,0,.01,0,.03-.02,.04,0,.02-.02,.05-.04,.07-.23,.29-.44,.66-.63,1.08-.1,.23-.17,.43-.21,.61-.04,.15-.05,.29-.05,.4,0,.1,.04,.17,.08,.21,.02,0,.04,.01,.07,.02,.27,.02,.65-.16,1.11-.54,.52-.44,.94-.89,1.26-1.35l.14-.22c.04-.06,.08-.1,.14-.13,.06-.03,.12-.03,.18-.02,.07,.02,.12,.06,.14,.11,.02,.04,.02,.09,.01,.14,0,.01,0,.03-.02,.04-.03,.07-.09,.16-.17,.27-.16,.26-.28,.5-.38,.72-.08,.19-.14,.36-.18,.52-.05,.19-.06,.36-.03,.51,.05,.27,.2,.43,.45,.49,.12,.03,.25,.03,.41,.01,.31-.03,.67-.15,1.07-.35s.83-.48,1.27-.85c.09-.06,.17-.09,.25-.07,.04,0,.08,.03,.11,.06,.05,.06,.07,.12,.05,.18,0,.01,0,.03-.01,.04-.02,.04-.05,.08-.09,.11-.5,.41-.97,.73-1.43,.95-.73,.36-1.34,.48-1.83,.37-.43-.1-.68-.37-.76-.82-.02-.19,0-.42,.05-.67-.1,.1-.21,.19-.33,.29-.59,.49-1.11,.71-1.55,.67l-.09-.02Z"/>
        </g>
      </g>
      <g>
        <path class="cls-4" d="M143.55,3.28s-.44-1.18-3.92-.03c-.86-.49-4.12-2.38-5.81-2.96-1.9-.78-2.63,.17-1.32,1.16,1.15,.92,3.41,2.64,3.86,3.15-2.21,.95-4.77,2.04-6.62,2.86l-1.56-1.31-1.3,.48,1.13,1.6-.36,.13c-.59,.22-.49,.86-.49,.86,0,0,.34,.55,.93,.33l.24-.09,.14,1.83,1.3-.48,.26-1.85c1.94-.58,4.63-1.31,7.04-2.08-.14,.72-.72,3.5-.99,4.95-.35,1.61,.82,1.85,1.76,.02,.91-1.55,2.15-5.11,2.47-6.04,3.79-1.41,3.23-2.55,3.23-2.55h0Z"/>
        <g>
          <path class="cls-4" d="M112.61,10.44l13.63-.86c.25,.01,.31,.4,.08,.52,0,0-3.45,1.68-3.72,4.34"/>
          <path class="cls-7" d="M112.61,10.4c4.51-.71,9.06-.95,13.62-1.11,.36-.01,.57,.36,.53,.61,.02,.22-.27,.48-.42,.51-1.63,.85-3.34,2.12-3.69,4.04,0,0-.07,0-.07,0,.17-2.02,1.86-3.53,3.5-4.52,.19-.11,.08-.04,.11-.07,0-.03,0,0,.04,.02-4.31,.33-9.29,.89-13.62,.53h0Z"/>
        </g>
      </g>
    </g>
  </g>
</svg>